<?xml version="1.0" encoding="UTF-8" standalone="no"?>
<!-- Created with Inkscape (http://www.inkscape.org/) -->

<svg
   width="256"
   height="256"
   viewBox="0 0 67.733332 67.733333"
   version="1.1"
   id="svg1"
   inkscape:version="1.3.2 (091e20ef0f, 2023-11-25, custom)"
   sodipodi:docname="night.svg"
   xmlns:inkscape="http://www.inkscape.org/namespaces/inkscape"
   xmlns:sodipodi="http://sodipodi.sourceforge.net/DTD/sodipodi-0.dtd"
   xmlns="http://www.w3.org/2000/svg"
   xmlns:svg="http://www.w3.org/2000/svg">
  <sodipodi:namedview
     id="namedview1"
     pagecolor="#ffffff"
     bordercolor="#000000"
     borderopacity="0.25"
     inkscape:showpageshadow="2"
     inkscape:pageopacity="0.0"
     inkscape:pagecheckerboard="0"
     inkscape:deskcolor="#d1d1d1"
     inkscape:document-units="mm"
     inkscape:zoom="1.4289282"
     inkscape:cx="34.991262"
     inkscape:cy="114.07151"
     inkscape:window-width="1920"
     inkscape:window-height="1006"
     inkscape:window-x="0"
     inkscape:window-y="0"
     inkscape:window-maximized="1"
     inkscape:current-layer="layer1" />
  <defs
     id="defs1" />
  <g
     inkscape:label="Layer 1"
     inkscape:groupmode="layer"
     id="layer1">
    <path
       id="path2"
       style="fill:#f9f9f9;stroke-width:0.242112"
       d="M 34.271685,9.5215798 A 24.345244,24.345244 0 0 0 9.9261263,33.866667 24.345244,24.345244 0 0 0 34.271685,58.211754 24.345244,24.345244 0 0 0 57.807207,39.913808 18.977208,18.977208 0 0 1 40.770423,50.59419 18.977208,18.977208 0 0 1 21.792954,31.617195 18.977208,18.977208 0 0 1 40.770423,12.639726 18.977208,18.977208 0 0 1 49.112905,14.577101 24.345244,24.345244 0 0 0 34.271685,9.5215798 Z" />
  </g>
</svg>
