<?xml version="1.0" encoding="UTF-8" standalone="no"?>
<!-- Created with Inkscape (http://www.inkscape.org/) -->

<svg
   width="256"
   height="256"
   viewBox="0 0 67.733332 67.733333"
   version="1.1"
   id="svg1"
   xml:space="preserve"
   inkscape:version="1.3.2 (091e20ef0f, 2023-11-25, custom)"
   sodipodi:docname="tcc.svg"
   xmlns:inkscape="http://www.inkscape.org/namespaces/inkscape"
   xmlns:sodipodi="http://sodipodi.sourceforge.net/DTD/sodipodi-0.dtd"
   xmlns="http://www.w3.org/2000/svg"
   xmlns:svg="http://www.w3.org/2000/svg"><sodipodi:namedview
     id="namedview1"
     pagecolor="#ffffff"
     bordercolor="#000000"
     borderopacity="0.25"
     inkscape:showpageshadow="2"
     inkscape:pageopacity="0.0"
     inkscape:pagecheckerboard="0"
     inkscape:deskcolor="#d1d1d1"
     inkscape:document-units="mm"
     inkscape:zoom="1.4289282"
     inkscape:cx="168.30797"
     inkscape:cy="200.84984"
     inkscape:window-width="1920"
     inkscape:window-height="1006"
     inkscape:window-x="0"
     inkscape:window-y="0"
     inkscape:window-maximized="1"
     inkscape:current-layer="layer2" /><defs
     id="defs1" /><g
     inkscape:groupmode="layer"
     id="layer2"
     inkscape:label="SVG"
     style="display:inline"><g
       id="g4"
       transform="matrix(0.73303903,0,0,0.73303903,-39.208672,-65.575845)"><path
         style="display:inline;opacity:1;fill:#fdc807;fill-opacity:1;stroke-width:0.264583"
         d="m 135.8753,125.98385 c 0,0 -12.46349,-1.23528 -25.97281,5.34234 -5.65735,2.75453 -11.642764,6.21666 -16.741108,12.77584 -9.322069,11.99315 -3.328202,18.65323 5.663715,19.97179 9.968223,1.46172 22.401603,-3.40146 22.401603,-3.40146 0,0 -18.09149,10.52305 -33.706557,4.76283 -6.164671,-2.27408 -12.159838,-8.75643 -2.018617,-21.8117 5.9872,-7.7076 17.171514,-13.89791 27.602904,-16.71314 13.66511,-3.68794 22.77087,-0.9265 22.77087,-0.9265 z"
         id="path2"
         sodipodi:nodetypes="cssscsssc" /><path
         style="display:inline;opacity:1;fill:#ffc907;fill-opacity:1;stroke-width:0.264583"
         d="m 139.10375,120.31991 c 0,0 -26.81233,-2.41068 -51.599096,14.16839 -14.397238,9.62985 -17.475954,16.04343 -18.770204,21.23022 -1.410582,5.653 4.606116,10.04872 13.494877,13.22308 0,0 -23.965214,0.90738 -21.820917,-14.70013 1.858852,-13.52986 27.127692,-25.60806 27.127692,-25.60806 0,0 30.462788,-14.65602 51.567648,-8.3135 z"
         id="path3"
         sodipodi:nodetypes="csscscc" /><path
         id="rect1"
         style="display:inline;fill:#013e7f;fill-opacity:1;stroke-width:0.264583"
         d="m 71.063363,102.36429 v 15.90601 h 22.600171 v 48.5991 h 22.673036 v -48.5991 h 22.60017 v -15.90601 z" /><path
         id="path4"
         style="display:inline;opacity:1;fill:#ffc907;fill-opacity:1;stroke-width:0.264583"
         d="m 80.058162,155.71608 c -0.149766,5.25271 3.622492,8.30292 7.462077,9.7193 15.615051,5.76021 33.706471,-4.76302 33.706471,-4.76302 0,0 -12.43352,4.86306 -22.401734,3.40135 -5.477465,-0.80321 -9.834553,-3.59219 -10.302731,-8.35763 z" /></g></g><g
     inkscape:label="Layer 1"
     inkscape:groupmode="layer"
     id="layer1"
     style="display:inline" /></svg>
