<?xml version="1.0" encoding="UTF-8" standalone="no"?>
<!-- Created with Inkscape (http://www.inkscape.org/) -->

<svg
   width="256"
   height="256"
   viewBox="0 0 67.733332 67.733333"
   version="1.1"
   id="svg1"
   xml:space="preserve"
   inkscape:version="1.3.2 (091e20ef0f, 2023-11-25, custom)"
   sodipodi:docname="tcc_grayscale.svg"
   xmlns:inkscape="http://www.inkscape.org/namespaces/inkscape"
   xmlns:sodipodi="http://sodipodi.sourceforge.net/DTD/sodipodi-0.dtd"
   xmlns="http://www.w3.org/2000/svg"
   xmlns:svg="http://www.w3.org/2000/svg"><sodipodi:namedview
     id="namedview1"
     pagecolor="#ffffff"
     bordercolor="#000000"
     borderopacity="0.25"
     inkscape:showpageshadow="2"
     inkscape:pageopacity="0.0"
     inkscape:pagecheckerboard="0"
     inkscape:deskcolor="#d1d1d1"
     inkscape:document-units="mm"
     inkscape:zoom="1.4289282"
     inkscape:cx="168.30797"
     inkscape:cy="200.84984"
     inkscape:window-width="1920"
     inkscape:window-height="1006"
     inkscape:window-x="0"
     inkscape:window-y="0"
     inkscape:window-maximized="1"
     inkscape:current-layer="layer2" /><defs
     id="defs1" /><g
     inkscape:groupmode="layer"
     id="layer2"
     inkscape:label="SVG"
     style="display:inline"><path
       style="display:inline;fill:#999999;fill-opacity:1;stroke-width:0.19395"
       d="m 60.393226,26.775234 c 0,0 -9.136225,-0.905508 -19.039083,3.916144 -4.147059,2.019178 -8.534601,4.557054 -12.271886,9.365189 -6.83344,8.791447 -2.439702,13.673546 4.151724,14.640102 7.307097,1.071498 16.42125,-2.493403 16.42125,-2.493403 0,0 -13.261769,7.713806 -24.708222,3.49134 -4.518945,-1.666989 -8.913636,-6.418805 -1.479725,-15.988827 4.388851,-5.649972 12.58739,-10.187711 20.234006,-12.251384 10.017059,-2.703404 16.691936,-0.679161 16.691936,-0.679161 z"
       id="path2"
       sodipodi:nodetypes="cssscsssc" /><path
       style="display:inline;fill:#999999;fill-opacity:1;stroke-width:0.19395"
       d="m 62.759806,22.623345 c 0,0 -19.654484,-1.767122 -37.824151,10.385983 -10.553738,7.059056 -12.810557,11.76046 -13.759292,15.56258 -1.034012,4.143869 3.376462,7.366104 9.892271,9.693034 0,0 -17.5674371,0.665145 -15.9955837,-10.775769 1.362611,-9.917916 19.8856567,-18.771708 19.8856567,-18.771708 0,0 22.330413,-10.743435 37.801099,-6.09412 z"
       id="path3"
       sodipodi:nodetypes="csscscc" /><path
       id="rect1"
       style="display:inline;fill:#ececec;fill-opacity:1;stroke-width:0.19395"
       d="M 12.883547,9.4611748 V 21.120901 h 16.566807 v 35.625037 h 16.62022 V 21.120901 H 62.637381 V 9.4611748 Z" /><path
       id="path4"
       style="display:inline;fill:#999999;fill-opacity:1;stroke-width:0.19395"
       d="m 19.477085,48.570119 c -0.109784,3.850442 2.655428,6.086365 5.469994,7.124626 11.446442,4.222459 24.708159,-3.491479 24.708159,-3.491479 0,0 -9.114256,3.564813 -16.421345,2.493322 -4.015196,-0.588784 -7.209112,-2.633215 -7.552304,-6.126469 z" /></g><g
     inkscape:label="Layer 1"
     inkscape:groupmode="layer"
     id="layer1"
     style="display:inline" /></svg>
