<?xml version="1.0" encoding="UTF-8" standalone="no"?>
<!-- Created with Inkscape (http://www.inkscape.org/) -->

<svg
   width="64"
   height="16"
   viewBox="0 0 16.933333 4.2333333"
   version="1.1"
   id="svg1"
   xml:space="preserve"
   inkscape:version="1.3.2 (091e20ef0f, 2023-11-25, custom)"
   sodipodi:docname="temp_tcc_cs_club_logo.svg"
   xmlns:inkscape="http://www.inkscape.org/namespaces/inkscape"
   xmlns:sodipodi="http://sodipodi.sourceforge.net/DTD/sodipodi-0.dtd"
   xmlns="http://www.w3.org/2000/svg"
   xmlns:svg="http://www.w3.org/2000/svg"><sodipodi:namedview
     id="namedview1"
     pagecolor="#ffffff"
     bordercolor="#000000"
     borderopacity="0.25"
     inkscape:showpageshadow="2"
     inkscape:pageopacity="0.0"
     inkscape:pagecheckerboard="0"
     inkscape:deskcolor="#d1d1d1"
     inkscape:document-units="mm"
     showgrid="true"
     inkscape:zoom="16"
     inkscape:cx="30.71875"
     inkscape:cy="10.53125"
     inkscape:window-width="1920"
     inkscape:window-height="1008"
     inkscape:window-x="0"
     inkscape:window-y="0"
     inkscape:window-maximized="1"
     inkscape:current-layer="layer1"><inkscape:grid
       id="grid1"
       units="px"
       originx="0"
       originy="0"
       spacingx="0.26458333"
       spacingy="0.26458333"
       empcolor="#0099e5"
       empopacity="0.30196078"
       color="#0099e5"
       opacity="0.14901961"
       empspacing="5"
       dotted="false"
       gridanglex="30"
       gridanglez="30"
       visible="true" /></sodipodi:namedview><defs
     id="defs1" /><g
     inkscape:label="Layer 1"
     inkscape:groupmode="layer"
     id="layer1"><path
       id="rect1"
       style="fill:#ffffff;fill-opacity:1;stroke-width:20.5512;stroke-linejoin:round;paint-order:stroke fill markers"
       d="M 1.3229167 0.79375 L 1.3229167 1.0583333 L 1.0583333 1.0583333 L 1.0583333 3.175 L 1.3229167 3.175 L 1.3229167 3.4395833 L 1.3229167 3.7041667 L 5.8208333 3.7041667 L 5.8208333 3.4395833 L 5.8208333 1.3229167 L 5.8208333 1.0583333 L 2.9104167 1.0583333 L 2.9104167 0.79375 L 1.3229167 0.79375 z M 11.1125 0.79375 L 11.1125 1.0583333 L 10.054167 1.0583333 L 9.7895833 1.0583333 L 9.7895833 3.7041667 L 10.054167 3.7041667 L 16.139583 3.7041667 L 16.139583 3.4395833 L 16.139583 1.3229167 L 16.139583 1.0583333 L 15.08125 1.0583333 L 15.08125 0.79375 L 13.49375 0.79375 L 13.49375 1.0583333 L 12.7 1.0583333 L 12.7 0.79375 L 11.1125 0.79375 z M 1.5875 1.0583333 L 2.6458333 1.0583333 L 2.6458333 1.3229167 L 5.55625 1.3229167 L 5.55625 3.4395833 L 1.5875 3.4395833 L 1.5875 2.9104167 L 1.3229167 2.9104167 L 1.3229167 1.3229167 L 1.5875 1.3229167 L 1.5875 1.0583333 z M 6.0854167 1.0583333 L 6.0854167 3.7041667 L 6.35 3.7041667 L 9.2604167 3.7041667 L 9.525 3.7041667 L 9.525 1.0583333 L 9.2604167 1.0583333 L 6.35 1.0583333 L 6.0854167 1.0583333 z M 11.377083 1.0583333 L 12.435417 1.0583333 L 12.435417 1.3229167 L 13.758333 1.3229167 L 13.758333 1.0583333 L 14.816667 1.0583333 L 14.816667 1.3229167 L 15.875 1.3229167 L 15.875 3.4395833 L 10.054167 3.4395833 L 10.054167 1.3229167 L 11.377083 1.3229167 L 11.377083 1.0583333 z M 1.8520833 1.3229167 L 1.8520833 1.5875 L 1.5875 1.5875 L 1.5875 1.8520833 L 1.8520833 1.8520833 L 1.8520833 2.9104167 L 2.38125 2.9104167 L 2.38125 1.8520833 L 2.6458333 1.8520833 L 2.6458333 1.5875 L 2.38125 1.5875 L 2.38125 1.3229167 L 1.8520833 1.3229167 z M 6.35 1.3229167 L 9.2604167 1.3229167 L 9.2604167 3.4395833 L 6.35 3.4395833 L 6.35 1.3229167 z M 11.641667 1.3229167 L 11.641667 2.9104167 L 12.170833 2.9104167 L 12.170833 1.3229167 L 11.641667 1.3229167 z M 14.022917 1.3229167 L 14.022917 2.9104167 L 14.552083 2.9104167 L 15.08125 2.9104167 L 15.610417 2.9104167 L 15.610417 1.5875 L 15.08125 1.5875 L 14.552083 1.5875 L 14.552083 1.3229167 L 14.022917 1.3229167 z M 2.9104167 1.5875 L 2.9104167 1.8520833 L 2.9104167 2.6458333 L 2.9104167 2.9104167 L 3.96875 2.9104167 L 3.96875 2.6458333 L 3.4395833 2.6458333 L 3.4395833 1.8520833 L 3.96875 1.8520833 L 3.96875 1.5875 L 2.9104167 1.5875 z M 4.2333333 1.5875 L 4.2333333 1.8520833 L 4.2333333 2.6458333 L 4.2333333 2.9104167 L 5.2916667 2.9104167 L 5.2916667 2.6458333 L 4.7625 2.6458333 L 4.7625 1.8520833 L 5.2916667 1.8520833 L 5.2916667 1.5875 L 4.2333333 1.5875 z M 6.6145833 1.5875 L 6.6145833 1.8520833 L 6.6145833 2.6458333 L 6.6145833 2.9104167 L 7.6729167 2.9104167 L 7.6729167 2.6458333 L 7.14375 2.6458333 L 7.14375 1.8520833 L 7.6729167 1.8520833 L 7.6729167 1.5875 L 6.6145833 1.5875 z M 7.9375 1.5875 L 7.9375 2.38125 L 8.4666667 2.38125 L 8.4666667 2.6458333 L 7.9375 2.6458333 L 7.9375 2.9104167 L 8.4666667 2.9104167 L 8.9958333 2.9104167 L 8.9958333 2.1166667 L 8.4666667 2.1166667 L 8.4666667 1.8520833 L 8.9958333 1.8520833 L 8.9958333 1.5875 L 8.4666667 1.5875 L 7.9375 1.5875 z M 10.31875 1.5875 L 10.31875 1.8520833 L 10.31875 2.6458333 L 10.31875 2.9104167 L 11.377083 2.9104167 L 11.377083 2.6458333 L 10.847917 2.6458333 L 10.847917 1.8520833 L 11.377083 1.8520833 L 11.377083 1.5875 L 10.31875 1.5875 z M 12.435417 1.5875 L 12.435417 2.9104167 L 12.964583 2.9104167 L 13.229167 2.9104167 L 13.758333 2.9104167 L 13.758333 1.5875 L 13.229167 1.5875 L 13.229167 2.6458333 L 12.964583 2.6458333 L 12.964583 1.5875 L 12.435417 1.5875 z M 14.552083 1.8520833 L 15.08125 1.8520833 L 15.08125 2.6458333 L 14.552083 2.6458333 L 14.552083 1.8520833 z " /></g></svg>
